:FULLY-SPECIFIED
:FORCE-ALL-JOINTS-BE-3DOF
:DEGREES
3160
root 0.95161 16.9233 -33.3627 6.0699 5.20147 -3.72992
lfemur -18.6496 -2.41908 -8.24174
ltibia 35.299 -0 0
lfoot -16.4105 7.63068 0.000218389
ltoes -40.6497 0 0
rfemur -19.475 -0.227066 18.4916
rtibia 39.1033 -0 0
rfoot -12.1961 -21.0636 0.000255746
rtoes -16.3973 0 0
lowerback 5.81019 1.52567 -0.522788
upperback -4.0807 2.13246 1.85519
thorax -7.63514 1.13213 1.97863
lowerneck -5.37317 -5.13298 -7.88823
upperneck 9.29589 -6.78289 5.98211
head 4.12914 -3.33455 2.7395
lclavicle -1.43323e-14 2.06239e-15 0
lhumerus -33.2849 -18.4017 94.821
lradius 51.334 -0 0
lwrist -9.05816 0 0
lhand -34.0499 29.5217 -5.97283e-05
lfingers 7.12502 -0 0
lthumb -7.22772 59.3775 -5.74442e-05
rclavicle -1.43323e-14 2.06239e-15 0
rhumerus -35.5137 14.1027 -81.3692
rradius 50.7031 -0 0
rwrist 1.46648 0 0
rhand -29.1299 -34.0771 0.00118521
rfingers 7.12502 -0 0
rthumb -2.47711 -64.0407 0.00112493
3161
root 0.955966 16.9249 -33.3593 6.06987 5.14428 -3.745
lfemur -18.6019 -2.4148 -8.24846
ltibia 35.2718 -0 0
lfoot -16.4041 7.68093 0.000319184
ltoes -40.6219 0 0
rfemur -19.4449 -0.207971 18.4906
rtibia 39.0483 -0 0
rfoot -12.183 -21.0349 0.000373783
rtoes -16.3933 0 0
lowerback 5.79759 1.53358 -0.527515
upperback -4.09468 2.14292 1.85644
thorax -7.64356 1.13772 1.98147
lowerneck -5.39043 -5.12202 -7.87971
upperneck 9.35329 -6.76976 5.98024
head 4.14828 -3.32759 2.73774
lclavicle -1.43323e-14 2.06239e-15 0
lhumerus -33.2238 -18.2213 94.7487
lradius 50.9262 -0 0
lwrist -9.22315 0 0
lhand -34.0535 29.546 -8.72952e-05
lfingers 7.12502 -0 0
lthumb -7.2312 59.4017 -8.39569e-05
rclavicle -1.43323e-14 2.06239e-15 0
rhumerus -35.502 13.9024 -81.3315
rradius 50.3214 -0 0
rwrist 1.51772 0 0
rhand -29.0272 -34.0602 0.00173225
rfingers 7.12502 -0 0
rthumb -2.37791 -64.024 0.00164414
3162
root 0.960323 16.9265 -33.3559 6.06986 5.08709 -3.76009
lfemur -18.5542 -2.41051 -8.25518
ltibia 35.2447 -0 0
lfoot -16.3978 7.73117 0.00041438
ltoes -40.5941 0 0
rfemur -19.4149 -0.188876 18.4896
rtibia 38.9932 -0 0
rfoot -12.1699 -21.0062 0.000485263
rtoes -16.3892 0 0
lowerback 5.78499 1.5415 -0.532244
upperback -4.10866 2.15338 1.85769
thorax -7.65199 1.14331 1.98431
lowerneck -5.40768 -5.11105 -7.87118
upperneck 9.41069 -6.75663 5.97838
head 4.16742 -3.32064 2.73599
lclavicle -1.43323e-14 2.06239e-15 0
lhumerus -33.163 -18.0409 94.6767
lradius 50.5184 -0 0
lwrist -9.38813 0 0
lhand -34.0571 29.5704 -0.000113331
lfingers 7.12502 -0 0
lthumb -7.23468 59.426 -0.000108997
rclavicle -1.43323e-14 2.06239e-15 0
rhumerus -35.4905 13.7022 -81.2938
rradius 49.9397 -0 0
rwrist 1.56896 0 0
rhand -28.9244 -34.0432 0.0022489
rfingers 7.12502 -0 0
rthumb -2.2787 -64.0074 0.00213451
3163
root 0.964679 16.9281 -33.3525 6.06986 5.0299 -3.77517
lfemur -18.5065 -2.40622 -8.2619
ltibia 35.2175 -0 0
lfoot -16.3914 7.78142 0.000503977
ltoes -40.5662 0 0
rfemur -19.3848 -0.16978 18.4886
rtibia 38.9382 -0 0
rfoot -12.1569 -20.9775 0.000590185
rtoes -16.3851 0 0
lowerback 5.77239 1.54941 -0.536974
upperback -4.12263 2.16384 1.85893
thorax -7.66041 1.1489 1.98715
lowerneck -5.42493 -5.10009 -7.86266
upperneck 9.46808 -6.74349 5.97654
head 4.18656 -3.31368 2.73424
lclavicle -1.43323e-14 2.06239e-15 0
lhumerus -33.1025 -17.8605 94.605
lradius 50.1107 -0 0
lwrist -9.55312 0 0
lhand -34.0607 29.5947 -0.000137835
lfingers 7.12502 -0 0
lthumb -7.23816 59.4502 -0.000132564
rclavicle -1.43323e-14 2.06239e-15 0
rhumerus -35.4791 13.502 -81.2562
rradius 49.5581 -0 0
rwrist 1.6202 0 0
rhand -28.8217 -34.0263 0.00273517
rfingers 7.12502 -0 0
rthumb -2.1795 -63.9907 0.00259605
3164
root 0.969035 16.9297 -33.3491 6.06988 4.9727 -3.79026
lfemur -18.4588 -2.40192 -8.26861
ltibia 35.1903 -0 0
lfoot -16.385 7.83166 0.000587975
ltoes -40.5384 0 0
rfemur -19.3547 -0.150684 18.4877
rtibia 38.8831 -0 0
rfoot -12.1438 -20.9488 0.00068855
rtoes -16.381 0 0
lowerback 5.75979 1.55732 -0.541707
upperback -4.13661 2.1743 1.86017
thorax -7.66884 1.15449 1.98999
lowerneck -5.44218 -5.08912 -7.85414
upperneck 9.52548 -6.73036 5.9747
head 4.20569 -3.30672 2.73249
lclavicle -1.43323e-14 2.06239e-15 0
lhumerus -33.0424 -17.6799 94.5335
lradius 49.7029 -0 0
lwrist -9.7181 0 0
lhand -34.0643 29.619 -0.000160807
lfingers 7.12502 -0 0
lthumb -7.24165 59.4745 -0.000154658
rclavicle -1.43323e-14 2.06239e-15 0
rhumerus -35.4678 13.3017 -81.2186
rradius 49.1764 -0 0
rwrist 1.67143 0 0
rhand -28.719 -34.0093 0.00319106
rfingers 7.12502 -0 0
rthumb -2.08029 -63.9741 0.00302875
3165
root 0.973391 16.9313 -33.3457 6.06991 4.91551 -3.80534
lfemur -18.4111 -2.39762 -8.27532
ltibia 35.1632 -0 0
lfoot -16.3786 7.88191 0.000666373
ltoes -40.5106 0 0
rfemur -19.3247 -0.131587 18.4867
rtibia 38.8281 -0 0
rfoot -12.1307 -20.9201 0.000780357
rtoes -16.377 0 0
lowerback 5.74719 1.56524 -0.546441
upperback -4.15058 2.18476 1.8614
thorax -7.67726 1.16008 1.99282
lowerneck -5.45942 -5.07815 -7.84563
upperneck 9.58287 -6.71722 5.97288
head 4.22483 -3.29976 2.73074
lclavicle -1.43323e-14 2.06239e-15 0
lhumerus -32.9825 -17.4993 94.4624
lradius 49.2951 -0 0
lwrist -9.88309 0 0
lhand -34.0679 29.6434 -0.000182248
lfingers 7.12502 -0 0
lthumb -7.24513 59.4987 -0.000175279
rclavicle -1.43323e-14 2.06239e-15 0
rhumerus -35.4567 13.1015 -81.1812
rradius 48.7947 -0 0
rwrist 1.72267 0 0
rhand -28.6163 -33.9924 0.00361657
rfingers 7.12502 -0 0
rthumb -1.98109 -63.9574 0.00343261
